<mxfile host="app.diagrams.net" agent="Mozilla/5.0 (Windows NT 10.0; Win64; x64) AppleWebKit/537.36 (KHTML, like Gecko) Chrome/140.0.0.0 Safari/537.36" version="28.2.0">
  <diagram name="Page-1" id="38b20595-45e3-9b7f-d5ca-b57f44c5b66d">
    <mxGraphModel dx="1662" dy="1566" grid="1" gridSize="10" guides="1" tooltips="1" connect="1" arrows="1" fold="1" page="1" pageScale="1" pageWidth="1100" pageHeight="850" background="none" math="0" shadow="0">
      <root>
        <mxCell id="0" />
        <mxCell id="1" parent="0" />
        <mxCell id="lSpn9x8to274P1ykeCi2-16" value="" style="group" vertex="1" connectable="0" parent="1">
          <mxGeometry x="1290" y="700" width="210" height="120" as="geometry" />
        </mxCell>
        <mxCell id="lSpn9x8to274P1ykeCi2-13" value="" style="verticalLabelPosition=bottom;html=1;verticalAlign=top;align=center;shape=mxgraph.floorplan.room;fillColor=strokeColor;" vertex="1" parent="lSpn9x8to274P1ykeCi2-16">
          <mxGeometry width="210" height="120" as="geometry" />
        </mxCell>
        <mxCell id="lSpn9x8to274P1ykeCi2-14" value="&lt;font style=&quot;font-size: 18px;&quot;&gt;BaÃ±os Publicos&lt;/font&gt;" style="text;strokeColor=none;align=center;fillColor=none;html=1;verticalAlign=middle;whiteSpace=wrap;rounded=0;" vertex="1" parent="lSpn9x8to274P1ykeCi2-16">
          <mxGeometry x="10" y="22.5" width="190" height="60" as="geometry" />
        </mxCell>
        <mxCell id="lSpn9x8to274P1ykeCi2-15" value="" style="verticalLabelPosition=bottom;html=1;verticalAlign=top;align=center;shape=mxgraph.floorplan.doorLeft;aspect=fixed;" vertex="1" parent="lSpn9x8to274P1ykeCi2-16">
          <mxGeometry x="10" y="10" width="80" height="85" as="geometry" />
        </mxCell>
        <mxCell id="lSpn9x8to274P1ykeCi2-20" value="" style="group" vertex="1" connectable="0" parent="1">
          <mxGeometry x="1520" y="700" width="380" height="120" as="geometry" />
        </mxCell>
        <mxCell id="lSpn9x8to274P1ykeCi2-17" value="" style="verticalLabelPosition=bottom;html=1;verticalAlign=top;align=center;shape=mxgraph.floorplan.room;fillColor=strokeColor;" vertex="1" parent="lSpn9x8to274P1ykeCi2-20">
          <mxGeometry width="380" height="120" as="geometry" />
        </mxCell>
        <mxCell id="lSpn9x8to274P1ykeCi2-18" value="" style="verticalLabelPosition=bottom;html=1;verticalAlign=top;align=center;shape=mxgraph.floorplan.doorLeft;aspect=fixed;" vertex="1" parent="lSpn9x8to274P1ykeCi2-20">
          <mxGeometry x="10" y="11" width="80" height="85" as="geometry" />
        </mxCell>
        <mxCell id="lSpn9x8to274P1ykeCi2-19" value="&lt;span style=&quot;color: rgb(0, 0, 0); font-family: Helvetica; font-size: 18px; font-style: normal; font-variant-ligatures: normal; font-variant-caps: normal; font-weight: 400; letter-spacing: normal; orphans: 2; text-indent: 0px; text-transform: none; widows: 2; word-spacing: 0px; -webkit-text-stroke-width: 0px; white-space: normal; background-color: rgb(236, 236, 236); text-decoration-thickness: initial; text-decoration-style: initial; text-decoration-color: initial; float: none; display: inline !important;&quot;&gt;Administracion&lt;/span&gt;" style="text;whiteSpace=wrap;html=1;align=center;verticalAlign=middle;" vertex="1" parent="lSpn9x8to274P1ykeCi2-20">
          <mxGeometry x="10" y="10" width="360" height="100" as="geometry" />
        </mxCell>
        <mxCell id="lSpn9x8to274P1ykeCi2-21" value="" style="verticalLabelPosition=bottom;html=1;verticalAlign=top;align=center;shape=mxgraph.floorplan.room;fillColor=strokeColor;" vertex="1" parent="1">
          <mxGeometry x="1440" y="550" width="150" height="130" as="geometry" />
        </mxCell>
        <mxCell id="lSpn9x8to274P1ykeCi2-22" value="" style="verticalLabelPosition=bottom;html=1;verticalAlign=top;align=center;shape=mxgraph.floorplan.room;fillColor=strokeColor;" vertex="1" parent="1">
          <mxGeometry x="1440" y="300" width="150" height="200" as="geometry" />
        </mxCell>
        <mxCell id="lSpn9x8to274P1ykeCi2-23" value="" style="verticalLabelPosition=bottom;html=1;verticalAlign=top;align=center;shape=mxgraph.floorplan.room;fillColor=strokeColor;" vertex="1" parent="1">
          <mxGeometry x="1440" y="60" width="150" height="200" as="geometry" />
        </mxCell>
        <mxCell id="lSpn9x8to274P1ykeCi2-26" value="" style="group" vertex="1" connectable="0" parent="1">
          <mxGeometry x="1110" width="129.44000000000005" height="850" as="geometry" />
        </mxCell>
        <mxCell id="lSpn9x8to274P1ykeCi2-1" value="" style="verticalLabelPosition=bottom;html=1;verticalAlign=top;align=center;shape=mxgraph.floorplan.wall;fillColor=strokeColor;direction=south;" vertex="1" parent="lSpn9x8to274P1ykeCi2-26">
          <mxGeometry width="9.58" height="850" as="geometry" />
        </mxCell>
        <mxCell id="lSpn9x8to274P1ykeCi2-4" value="" style="verticalLabelPosition=bottom;html=1;verticalAlign=top;align=center;shape=mxgraph.floorplan.wall;fillColor=strokeColor;direction=south;" vertex="1" parent="lSpn9x8to274P1ykeCi2-26">
          <mxGeometry x="120" width="9.44" height="850" as="geometry" />
        </mxCell>
        <mxCell id="lSpn9x8to274P1ykeCi2-5" value="" style="verticalLabelPosition=bottom;html=1;verticalAlign=top;align=center;shape=mxgraph.floorplan.wall;fillColor=strokeColor;direction=south;" vertex="1" parent="lSpn9x8to274P1ykeCi2-26">
          <mxGeometry x="60" y="140" width="10" height="100" as="geometry" />
        </mxCell>
        <mxCell id="lSpn9x8to274P1ykeCi2-8" value="" style="verticalLabelPosition=bottom;html=1;verticalAlign=top;align=center;shape=mxgraph.floorplan.wall;fillColor=strokeColor;direction=south;" vertex="1" parent="lSpn9x8to274P1ykeCi2-26">
          <mxGeometry x="60" y="270" width="10" height="100" as="geometry" />
        </mxCell>
        <mxCell id="lSpn9x8to274P1ykeCi2-9" value="" style="verticalLabelPosition=bottom;html=1;verticalAlign=top;align=center;shape=mxgraph.floorplan.wall;fillColor=strokeColor;direction=south;" vertex="1" parent="lSpn9x8to274P1ykeCi2-26">
          <mxGeometry x="60" y="400" width="10" height="100" as="geometry" />
        </mxCell>
        <mxCell id="lSpn9x8to274P1ykeCi2-10" value="" style="verticalLabelPosition=bottom;html=1;verticalAlign=top;align=center;shape=mxgraph.floorplan.wall;fillColor=strokeColor;direction=south;" vertex="1" parent="lSpn9x8to274P1ykeCi2-26">
          <mxGeometry x="60" y="520" width="10" height="100" as="geometry" />
        </mxCell>
        <mxCell id="lSpn9x8to274P1ykeCi2-11" value="" style="verticalLabelPosition=bottom;html=1;verticalAlign=top;align=center;shape=mxgraph.floorplan.wall;fillColor=strokeColor;direction=south;" vertex="1" parent="lSpn9x8to274P1ykeCi2-26">
          <mxGeometry x="60" y="650" width="10" height="100" as="geometry" />
        </mxCell>
        <mxCell id="lSpn9x8to274P1ykeCi2-24" value="" style="verticalLabelPosition=bottom;html=1;verticalAlign=top;align=center;shape=mxgraph.floorplan.wall;fillColor=strokeColor;direction=south;" vertex="1" parent="lSpn9x8to274P1ykeCi2-26">
          <mxGeometry x="60" y="10" width="10" height="100" as="geometry" />
        </mxCell>
        <mxCell id="lSpn9x8to274P1ykeCi2-25" value="" style="verticalLabelPosition=bottom;html=1;verticalAlign=top;align=center;shape=mxgraph.floorplan.wall;fillColor=strokeColor;direction=south;" vertex="1" parent="lSpn9x8to274P1ykeCi2-26">
          <mxGeometry x="60" y="780" width="10" height="70" as="geometry" />
        </mxCell>
        <mxCell id="lSpn9x8to274P1ykeCi2-28" value="" style="shape=flexArrow;endArrow=classic;html=1;rounded=0;" edge="1" parent="lSpn9x8to274P1ykeCi2-26">
          <mxGeometry width="50" height="50" relative="1" as="geometry">
            <mxPoint x="100" y="830" as="sourcePoint" />
            <mxPoint x="100" y="650" as="targetPoint" />
          </mxGeometry>
        </mxCell>
        <mxCell id="lSpn9x8to274P1ykeCi2-30" value="" style="shape=flexArrow;endArrow=classic;html=1;rounded=0;" edge="1" parent="lSpn9x8to274P1ykeCi2-26">
          <mxGeometry width="50" height="50" relative="1" as="geometry">
            <mxPoint x="100" y="620" as="sourcePoint" />
            <mxPoint x="100" y="440" as="targetPoint" />
          </mxGeometry>
        </mxCell>
        <mxCell id="lSpn9x8to274P1ykeCi2-31" value="" style="shape=flexArrow;endArrow=classic;html=1;rounded=0;" edge="1" parent="lSpn9x8to274P1ykeCi2-26">
          <mxGeometry width="50" height="50" relative="1" as="geometry">
            <mxPoint x="100" y="420" as="sourcePoint" />
            <mxPoint x="100" y="240" as="targetPoint" />
          </mxGeometry>
        </mxCell>
        <mxCell id="lSpn9x8to274P1ykeCi2-32" value="" style="shape=flexArrow;endArrow=classic;html=1;rounded=0;" edge="1" parent="lSpn9x8to274P1ykeCi2-26">
          <mxGeometry width="50" height="50" relative="1" as="geometry">
            <mxPoint x="100" y="210" as="sourcePoint" />
            <mxPoint x="100" y="30" as="targetPoint" />
          </mxGeometry>
        </mxCell>
        <mxCell id="lSpn9x8to274P1ykeCi2-33" value="" style="shape=flexArrow;endArrow=none;html=1;rounded=0;startArrow=block;endFill=0;" edge="1" parent="lSpn9x8to274P1ykeCi2-26">
          <mxGeometry width="50" height="50" relative="1" as="geometry">
            <mxPoint x="30" y="825" as="sourcePoint" />
            <mxPoint x="30" y="645" as="targetPoint" />
          </mxGeometry>
        </mxCell>
        <mxCell id="lSpn9x8to274P1ykeCi2-34" value="" style="shape=flexArrow;endArrow=none;html=1;rounded=0;startArrow=block;endFill=0;" edge="1" parent="lSpn9x8to274P1ykeCi2-26">
          <mxGeometry width="50" height="50" relative="1" as="geometry">
            <mxPoint x="30" y="615" as="sourcePoint" />
            <mxPoint x="30" y="435" as="targetPoint" />
          </mxGeometry>
        </mxCell>
        <mxCell id="lSpn9x8to274P1ykeCi2-35" value="" style="shape=flexArrow;endArrow=none;html=1;rounded=0;startArrow=block;endFill=0;" edge="1" parent="lSpn9x8to274P1ykeCi2-26">
          <mxGeometry width="50" height="50" relative="1" as="geometry">
            <mxPoint x="30" y="415" as="sourcePoint" />
            <mxPoint x="30" y="235" as="targetPoint" />
          </mxGeometry>
        </mxCell>
        <mxCell id="lSpn9x8to274P1ykeCi2-36" value="" style="shape=flexArrow;endArrow=none;html=1;rounded=0;startArrow=block;endFill=0;" edge="1" parent="lSpn9x8to274P1ykeCi2-26">
          <mxGeometry width="50" height="50" relative="1" as="geometry">
            <mxPoint x="30" y="205" as="sourcePoint" />
            <mxPoint x="30" y="25" as="targetPoint" />
          </mxGeometry>
        </mxCell>
      </root>
    </mxGraphModel>
  </diagram>
</mxfile>
